#!OML:ASF E:\Style4\Style4.ASF
:FULLY-SPECIFIED
:DEGREES
3454
root 0.941619 17.5433 -1.61432 9.91658 -13.7263 0.0736045
lowerback 16.5661 0.849789 -2.93367
upperback 13.6139 0.620023 0.570941
thorax 5.31673 -0.00255055 2.17432
lowerneck 4.60835 1.03832 -7.28802
upperneck -5.2885 0.972228 1.60351
head -2.55633 0.585422 1.75883
rclavicle -2.19657e-014 1.70209e-014
rhumerus 38.7064 23.7659 -61.4513
rradius 106.866
rwrist -33.4812
rhand -26.2901 18.5475
rfingers 7.12502
rthumb 0.265548 -11.432
lclavicle -2.19657e-014 1.70209e-014
lhumerus 39.5783 -30.759 77.0652
lradius 110.083
lwrist 42.0996
lhand -25.4448 28.4208
lfingers 7.12502
lthumb 1.08197 58.3978
rfemur -34.2984 1.48397 16.7398
rtibia 38.9268
rfoot -12.9563 -12.8532
rtoes -14.7278
lfemur -32.1611 6.95905 -22.685
ltibia 42.6334
lfoot -22.3162 16.6935
ltoes -8.73212
3455
root 0.919926 17.5529 -1.61155 9.91477 -13.6159 -0.199036
lowerback 16.5556 0.83815 -2.82002
upperback 13.6041 0.617308 0.624286
thorax 5.31059 0.0022328 2.16757
lowerneck 4.43168 1.18202 -7.34464
upperneck -5.06991 1.19659 1.93552
head -2.46723 0.684767 1.86928
rclavicle 5.96354e-015 7.85199e-015
rhumerus 38.9726 23.7735 -60.8929
rradius 107.031
rwrist -33.2698
rhand -25.5526 17.7791
rfingers 7.12502
rthumb 0.977823 -12.1984
lclavicle 5.96354e-015 7.85199e-015
lhumerus 39.2079 -30.9321 77.8982
lradius 110.618
lwrist 42.4586
lhand -26.4252 28.6136
lfingers 7.12502
lthumb 0.135053 58.5933
rfemur -34.0346 1.51733 17.1337
rtibia 38.6534
rfoot -12.835 -12.8824
rtoes -15.3385
lfemur -31.9724 6.95499 -22.2727
ltibia 42.4588
lfoot -22.3006 16.535
ltoes -8.27785
3456
root 0.899396 17.562 -1.61039 9.94308 -13.5025 -0.221699
lowerback 16.4377 0.817061 -2.97819
upperback 13.5759 0.577918 0.624812
thorax 5.34335 -0.0290673 2.26213
lowerneck 4.43378 1.34111 -7.39541
upperneck -5.02854 1.42609 2.26916
head -2.47212 0.789931 1.98131
rclavicle 2.72832e-014 5.91384e-015
rhumerus 39.2796 23.7044 -60.4477
rradius 106.903
rwrist -32.6268
rhand -24.145 17.9555
rfingers 7.12502
rthumb 2.33737 -12.0115
lclavicle 2.72832e-014 5.91384e-015
lhumerus 38.5293 -30.8678 79.2733
lradius 110.817
lwrist 41.7208
lhand -26.2921 28.5699
lfingers 7.12502
lthumb 0.263627 58.5495
rfemur -33.8723 1.49842 17.2254
rtibia 38.3912
rfoot -12.7908 -12.821
rtoes -14.882
lfemur -31.859 6.9128 -22.1645
ltibia 42.261
lfoot -22.2557 16.3968
ltoes -7.89323
3457
root 0.875532 17.5753 -1.61009 10.0196 -13.3542 -0.0985726
lowerback 16.2766 0.787227 -3.32864
upperback 13.5213 0.509783 0.595245
thorax 5.37286 -0.0869117 2.43601
lowerneck 4.36202 1.49041 -7.40388
upperneck -4.91575 1.64995 2.5864
head -2.43908 0.891064 2.08007
rclavicle -1.55052e-014 2.37548e-014
rhumerus 39.6697 23.8209 -59.9044
rradius 107.078
rwrist -32.5557
rhand -23.2323 17.2733
rfingers 7.12502
rthumb 3.21881 -12.6822
lclavicle -1.55052e-014 2.37548e-014
lhumerus 37.9776 -30.7645 80.487
lradius 110.991
lwrist 40.6859
lhand -26.1558 28.3893
lfingers 7.12502
lthumb 0.395257 58.3686
rfemur -33.7896 1.40104 17.1636
rtibia 38.1551
rfoot -12.8025 -12.7791
rtoes -13.6999
lfemur -31.8298 6.84473 -22.2309
ltibia 42.029
lfoot -22.0225 16.5111
ltoes -8.65705
3458
root 0.844088 17.5885 -1.60976 10.0768 -13.1866 -0.025832
lowerback 16.1495 0.806765 -3.65852
upperback 13.4791 0.507186 0.594504
thorax 5.3949 -0.111875 2.62134
lowerneck 4.20892 1.60234 -7.39854
upperneck -4.72482 1.83212 2.94316
head -2.36395 0.969594 2.19088
rclavicle -5.96354e-015 -7.15625e-015
rhumerus 39.9592 23.7295 -59.5527
rradius 106.92
rwrist -31.9977
rhand -22.0687 17.2707
rfingers 7.12502
rthumb 4.3424 -12.6647
lclavicle -5.96354e-015 -7.15625e-015
lhumerus 37.7429 -30.8626 81.0914
lradius 111.241
lwrist 40.5808
lhand -26.7693 28.1887
lfingers 7.12502
lthumb -0.197254 58.1684
rfemur -33.6851 1.36244 17.1792
rtibia 37.936
rfoot -12.7287 -12.9313
rtoes -13.3789
lfemur -31.7731 6.77408 -22.2114
ltibia 41.771
lfoot -21.7562 16.6676
ltoes -9.62709
3459
root 0.813376 17.5981 -1.61008 10.1092 -13.0524 -0.0231426
lowerback 16.0746 0.853637 -3.90059
upperback 13.4343 0.546751 0.619548
thorax 5.38293 -0.109833 2.77986
lowerneck 4.15746 1.70336 -7.44899
upperneck -4.60768 1.98765 3.30578
head -2.33283 1.0369 2.31601
rclavicle -2.47487e-014 8.84592e-015
rhumerus 40.2158 23.662 -59.1834
rradius 106.758
rwrist -31.6886
rhand -20.9605 17.158
rfingers 7.12502
rthumb 5.41252 -12.7529
lclavicle -2.47487e-014 8.84592e-015
lhumerus 37.4114 -30.9872 81.6727
lradius 111.477
lwrist 41.2715
lhand -27.7571 27.8524
lfingers 7.12502
lthumb -1.15128 57.829
rfemur -33.5558 1.39833 17.2621
rtibia 37.7298
rfoot -12.6709 -13.0125
rtoes -13.3396
lfemur -31.671 6.73372 -22.0998
ltibia 41.5148
lfoot -21.5798 16.6464
ltoes -9.79977
3460
root 0.786396 17.6076 -1.61206 10.1028 -12.86 -0.0335377
lowerback 16.0735 0.840293 -4.09082
upperback 13.4051 0.510724 0.635207
thorax 5.35568 -0.141241 2.90752
lowerneck 4.08848 1.82507 -7.49779
upperneck -4.50574 2.16809 3.59916
head -2.30441 1.11911 2.41718
rclavicle -6.95746e-016 7.35503e-015
rhumerus 40.5871 23.8007 -58.71
rradius 106.836
rwrist -32.062
rhand -20.5264 16.2744
rfingers 7.12502
rthumb 5.83162 -13.6253
lclavicle -6.95746e-016 7.35503e-015
lhumerus 37.3666 -30.9836 82.0122
lradius 111.801
lwrist 42.2
lhand -28.8723 27.6877
lfingers 7.12502
lthumb -2.22836 57.6558
rfemur -33.3867 1.31835 17.3877
rtibia 37.5164
rfoot -12.5654 -13.0965
rtoes -13.5476
lfemur -31.524 6.66751 -21.9781
ltibia 41.268
lfoot -21.3591 16.5868
ltoes -9.7938
3461
root 0.759584 17.6185 -1.61449 10.1404 -12.6213 -0.0285455
lowerback 16.0419 0.788082 -4.27285
upperback 13.3629 0.427301 0.629117
thorax 5.33418 -0.194197 3.01284
lowerneck 4.05204 1.94544 -7.5408
upperneck -4.46634 2.34432 3.87991
head -2.30289 1.20033 2.51392
rclavicle -1.12313e-014 4.96962e-016
rhumerus 40.9441 23.969 -58.2827
rradius 106.951
rwrist -32.6715
rhand -20.1864 15.3356
rfingers 7.12502
rthumb 6.15982 -14.5549
lclavicle -1.12313e-014 4.96962e-016
lhumerus 36.9478 -30.8491 82.822
lradius 112.29
lwrist 42.7336
lhand -29.5093 28.0894
lfingers 7.12502
lthumb -2.84358 58.0502
rfemur -33.2668 1.1478 17.5101
rtibia 37.2941
rfoot -12.5025 -13.1492
rtoes -13.584
lfemur -31.431 6.51271 -21.8651
ltibia 41.0195
lfoot -21.1993 16.5036
ltoes -9.7251
3462
root 0.731849 17.632 -1.61656 10.2173 -12.4204 -0.0530507
lowerback 15.9766 0.776561 -4.40305
upperback 13.3146 0.403449 0.637303
thorax 5.31808 -0.214032 3.09761
lowerneck 3.99928 2.00808 -7.62521
upperneck -4.43668 2.44273 4.17711
head -2.29853 1.24346 2.62725
rclavicle -2.06736e-014 2.06736e-014
rhumerus 41.2368 23.9994 -57.9194
rradius 107.026
rwrist -33.3197
rhand -19.4723 14.4835
rfingers 7.12502
rthumb 6.84927 -15.3857
lclavicle -2.06736e-014 2.06736e-014
lhumerus 35.9869 -30.6391 84.2943
lradius 112.734
lwrist 43.0761
lhand -29.6595 28.3526
lfingers 7.12502
lthumb -2.98863 58.3114
rfemur -33.1641 1.05815 17.643
rtibia 37.0441
rfoot -12.5064 -13.1597
rtoes -13.2354
lfemur -31.3726 6.37575 -21.721
ltibia 40.7613
lfoot -21.1119 16.4811
ltoes -9.77644
3463
root 0.705477 17.6453 -1.6192 10.2749 -12.2502 -0.0917593
lowerback 15.9377 0.81608 -4.49473
upperback 13.2782 0.448432 0.657022
thorax 5.29482 -0.197182 3.1653
lowerneck 4.00051 2.04445 -7.66212
upperneck -4.45435 2.50425 4.45093
head -2.31619 1.26808 2.72568
rclavicle -2.21645e-014 2.60408e-014
rhumerus 41.5275 23.9311 -57.5487
rradius 106.983
rwrist -34.0538
rhand -18.8927 13.9935
rfingers 7.12502
rthumb 7.40875 -15.8568
lclavicle -2.21645e-014 2.60408e-014
lhumerus 35.5472 -30.5427 85.2226
lradius 113.009
lwrist 43.5725
lhand -30.1585 28.3033
lfingers 7.12502
lthumb -3.47057 58.2548
rfemur -33.0309 0.983706 17.7898
rtibia 36.7848
rfoot -12.4975 -13.1865
rtoes -12.9765
lfemur -31.285 6.26487 -21.5702
ltibia 40.4938
lfoot -20.9438 16.5981
ltoes -10.3365
3464
root 0.679843 17.6578 -1.62237 10.3386 -12.0478 -0.16848
lowerback 15.9284 0.819103 -4.52067
upperback 13.2417 0.451678 0.666442
thorax 5.25871 -0.195495 3.18959
lowerneck 4.00133 2.09802 -7.66158
upperneck -4.48241 2.58787 4.65738
head -2.33649 1.30488 2.79353
rclavicle 0 -1.53064e-014
rhumerus 41.9146 23.9221 -57.1478
rradius 106.91
rwrist -34.807
rhand -18.866 13.5149
rfingers 7.12502
rthumb 7.4345 -16.3345
lclavicle 0 -1.53064e-014
lhumerus 35.3206 -30.4226 85.8027
lradius 113.298
lwrist 44.0872
lhand -30.8352 28.3559
lfingers 7.12502
lthumb -4.12403 58.2957
rfemur -32.8931 0.897982 17.9779
rtibia 36.5366
rfoot -12.487 -13.2226
rtoes -12.9126
lfemur -31.209 6.16175 -21.3801
ltibia 40.2316
lfoot -20.7169 16.6319
ltoes -10.8215
3465
root 0.652352 17.6675 -1.62764 10.3655 -11.8151 -0.205128
lowerback 15.999 0.798528 -4.57917
upperback 13.1922 0.417269 0.650063
thorax 5.17016 -0.212208 3.20874
lowerneck 3.9574 2.14669 -7.70222
upperneck -4.4434 2.66664 4.90484
head -2.32806 1.33866 2.88327
rclavicle -2.5842e-015 -1.80894e-014
rhumerus 42.2142 23.9805 -56.8476
rradius 106.907
rwrist -35.5516
rhand -18.9457 12.7347
rfingers 7.12502
rthumb 7.35759 -17.1173
lclavicle -2.5842e-015 -1.80894e-014
lhumerus 34.899 -30.2302 86.4902
lradius 113.616
lwrist 44.3863
lhand -31.3634 28.6139
lfingers 7.12502
lthumb -4.63406 58.5432
rfemur -32.7415 0.826994 18.1293
rtibia 36.3143
rfoot -12.483 -13.2979
rtoes -12.7324
lfemur -31.1109 5.96456 -21.1906
ltibia 39.9843
lfoot -20.7279 16.4233
ltoes -9.72515
3466
root 0.623904 17.6734 -1.6352 10.4418 -11.5569 -0.243561
lowerback 16.0235 0.79309 -4.64825
upperback 13.1307 0.403543 0.653809
thorax 5.09049 -0.21999 3.25312
lowerneck 3.81303 2.15022 -7.76672
upperneck -4.23837 2.68908 5.19869
head -2.24364 1.34318 2.99498
rclavicle -8.54774e-015 -1.41137e-014
rhumerus 42.4547 24.0644 -56.5622
rradius 106.926
rwrist -36.066
rhand -19.3249 11.2968
rfingers 7.12502
rthumb 6.99153 -18.5677
lclavicle -8.54774e-015 -1.41137e-014
lhumerus 34.4833 -30.1097 87.1282
lradius 113.948
lwrist 44.51
lhand -31.7714 29.1745
lfingers 7.12502
lthumb -5.02801 59.0949
rfemur -32.677 0.735207 18.2881
rtibia 36.1245
rfoot -12.4104 -13.4368
rtoes -12.4945
lfemur -31.0935 5.8023 -21.0008
ltibia 39.756
lfoot -20.7921 16.1406
ltoes -8.38939
